<svg xmlns="http://www.w3.org/2000/svg" version="1.1" xmlns:xlink="http://www.w3.org/1999/xlink" xmlns:svgjs="http://svgjs.dev/svgjs" width="1000" height="1000" viewBox="0 0 1000 1000"><rect width="1000" height="1000" fill="#000000"></rect><g transform="matrix(0.7,0,0,0.7,150.00077059784894,106.25)"><svg viewBox="0 0 320 360" data-background-color="#ffffff" preserveAspectRatio="xMidYMid meet" height="1125" width="1000" xmlns="http://www.w3.org/2000/svg" xmlns:xlink="http://www.w3.org/1999/xlink"><defs></defs><g id="tight-bounds" transform="matrix(1,0,0,1,0.00010353528136874957,0)"><svg viewBox="0 0 320 360" height="360" width="320"><g><svg></svg></g><g><svg viewBox="0 0 320 360" height="360" width="320"><g><path d="M307.925 179.999l6.575-11.387c11.322-19.607 4.604-44.679-15.003-56.001l-11.387-6.575v-13.151c0-22.639-18.354-40.994-40.994-40.994h-13.151l-6.575-11.387c-11.322-19.607-36.393-26.325-56.001-15.003l-11.39 6.572-11.387-6.576c-19.607-11.318-44.679-4.6-56.001 15.007l-6.575 11.387h-13.151c-22.639 0-40.994 18.354-40.994 40.994v13.151l-11.387 6.575c-19.607 11.322-26.325 36.393-15.003 56.001l6.572 11.387-6.576 11.387c-11.318 19.607-4.6 44.679 15.007 56l11.387 6.576v13.15c0 22.639 18.354 40.994 40.994 40.994h13.151l6.575 11.387c11.322 19.607 36.393 26.325 56.001 15.003l11.387-6.571 11.387 6.575c19.607 11.322 44.679 4.604 56-15.003l6.576-11.387h13.15c22.639 0 40.994-18.354 40.994-40.994v-13.151l11.387-6.575c19.607-11.322 26.325-36.393 15.003-56.001zM297.702 115.716c8.655 4.996 14.842 13.062 17.428 22.713 2.586 9.65 1.261 19.734-3.735 28.384l-5.538 9.596-17.747-30.74v-35.494zM251.155 271.155l-57.791 33.365h-66.731l-57.791-33.365-33.365-57.791v-66.731l33.365-57.791 57.791-33.365h66.731l57.791 33.365 33.365 57.791v66.731zM284.517 220.539v31.351l-27.151 15.676zM247.566 277.366l-15.676 27.151h-31.351zM187.15 308.106l-27.151 15.676-27.151-15.676zM119.459 304.517h-31.352l-15.676-27.151zM62.632 267.566l-27.151-15.676v-31.351zM31.891 207.15l-15.675-27.151 15.675-27.151zM35.481 139.459v-31.352l27.151-15.676zM72.431 82.632l15.676-27.151h31.352zM132.848 51.891l27.151-15.675 27.151 15.675zM200.539 55.481h31.351l15.676 27.151zM257.366 92.431l27.151 15.676v31.352zM288.106 152.848l15.676 27.151-15.676 27.151zM247.112 55.481c9.992 0 19.384 3.889 26.452 10.956 7.063 7.063 10.956 16.46 10.957 26.452v11.079l-30.741-17.747-17.747-30.74zM173.18 28.606c8.655-4.996 18.735-6.322 28.385-3.735 9.65 2.586 17.716 8.777 22.712 17.428l5.538 9.596h-35.494l-30.741-17.747zM95.716 42.295c4.996-8.655 13.062-14.842 22.713-17.428 9.65-2.586 19.734-1.261 28.384 3.736l9.596 5.537-30.74 17.747h-35.494zM35.481 92.885c0-9.992 3.889-19.384 10.956-26.452 7.063-7.063 16.46-10.956 26.452-10.956h11.079l-17.747 30.74-30.74 17.747zM8.606 166.817c-4.996-8.655-6.322-18.735-3.735-28.385 2.586-9.65 8.777-17.716 17.428-22.712l9.596-5.538v35.495l-17.747 30.74zM22.295 244.281c-8.655-4.996-14.842-13.062-17.428-22.712-2.586-9.65-1.261-19.734 3.736-28.385l5.537-9.596 17.747 30.74v35.495zM72.885 304.517c-9.992 0-19.384-3.889-26.452-10.957-7.063-7.063-10.956-16.46-10.956-26.451v-11.08l30.74 17.747 17.747 30.741zM146.817 331.391c-8.655 4.996-18.735 6.322-28.385 3.735-9.65-2.586-17.716-8.777-22.712-17.428l-5.538-9.596h35.495l30.74 17.747zM224.281 317.702c-4.996 8.655-13.062 14.842-22.712 17.428-9.65 2.586-19.734 1.261-28.385-3.735l-9.596-5.538 30.74-17.747h35.495zM284.517 267.112c0 9.992-3.889 19.384-10.957 26.452-7.063 7.063-16.46 10.956-26.451 10.957h-11.08l17.747-30.741 30.741-17.747zM315.13 221.565c-2.586 9.65-8.777 17.716-17.428 22.712l-9.596 5.538v-35.494l17.747-30.741 5.538 9.596c4.996 8.658 6.326 18.739 3.739 28.389z" fill="#1e55b3" data-fill-palette-color="tertiary"></path></g><g transform="matrix(1,0,0,1,64,104.11371288470018)"><svg viewBox="0 0 192 151.77257423059964" height="151.77257423059964" width="192"><g><svg viewBox="0 0 192 151.77257423059964" height="151.77257423059964" width="192"><g><svg viewBox="0 0 192 151.77257423059964" height="151.77257423059964" width="192"><g transform="matrix(1,0,0,1,0,93.80153968821064)"><svg viewBox="0 0 192 57.971034542389" height="57.971034542389" width="192"><g><svg viewBox="0 0 192 57.971034542389" height="57.971034542389" width="192"><g><svg viewBox="0 0 192 57.971034542389" height="57.971034542389" width="192"><g transform="matrix(1,0,0,1,0,0)"><svg width="192" viewBox="2.75 -38.599998474121094 128.4955596923828 38.79999923706055" height="57.971034542389" data-palette-color="#1e55b3"><path d="M13.95-0.1Q10.45-0.1 7.93-1.53 5.4-2.95 4.13-5.35 2.85-7.75 2.85-10.65L2.85-10.65Q2.85-12.05 4.2-12.05L4.2-12.05Q5.55-12.05 5.55-10.85L5.55-10.85Q5.55-7 7.85-4.8 10.15-2.6 13.95-2.6L13.95-2.6Q17.25-2.6 19.28-4.17 21.3-5.75 21.3-8.7L21.3-8.7Q21.3-11.8 19.13-13.48 16.95-15.15 12.7-16.35L12.7-16.35Q10-17.1 7.98-17.98 5.95-18.85 4.35-20.75 2.75-22.65 2.75-25.75L2.75-25.75Q2.75-28.55 4.2-30.75 5.65-32.95 8.1-34.15 10.55-35.35 13.4-35.35L13.4-35.35Q16.55-35.35 18.9-34.02 21.25-32.7 22.48-30.53 23.7-28.35 23.7-25.9L23.7-25.9Q23.7-24.5 22.4-24.5L22.4-24.5Q21.05-24.5 21.05-25.75L21.05-25.75Q21.05-28.8 18.93-30.8 16.8-32.8 13.4-32.8L13.4-32.8Q9.75-32.8 7.6-30.8 5.45-28.8 5.45-25.75L5.45-25.75Q5.45-23.6 6.6-22.28 7.75-20.95 9.5-20.2 11.25-19.45 14.3-18.55L14.3-18.55Q16.9-17.8 18.9-16.82 20.9-15.85 22.45-13.85 24-11.85 24-8.75L24-8.75Q24-4.8 21.2-2.45 18.4-0.1 13.95-0.1L13.95-0.1ZM44.5-7.55Q45.2-7.55 45.47-7.2 45.75-6.85 45.75-5.9L45.75-5.9Q45.75-3.5 44.17-1.75 42.6 0 40.05 0L40.05 0Q36.5 0 34.97-3.5 33.45-7 33.45-13.65L33.45-13.65Q33.45-16.75 33.75-20.05L33.75-20.05 30-20.35Q28.95-20.45 28.95-21.6L28.95-21.6Q28.95-22.2 29.27-22.5 29.6-22.8 30.2-22.7L30.2-22.7Q32.45-22.5 33.95-22.45L33.95-22.45Q34.3-26.3 35.2-32.35L35.2-32.35Q35.3-32.95 35.6-33.23 35.9-33.5 36.55-33.5L36.55-33.5Q37.2-33.5 37.57-33.15 37.95-32.8 37.9-32.2L37.9-32.2Q37.25-27.8 36.6-22.3L36.6-22.3Q39.9-22.2 41.15-22.2L41.15-22.2Q42.3-22.2 42.3-21.15L42.3-21.15Q42.3-20.5 42.02-20.25 41.75-20 41-19.95L41-19.95 38.6-19.9 36.4-19.95Q36.1-16.65 36.1-13.5L36.1-13.5Q36.1-8.45 37.02-5.43 37.95-2.4 40.25-2.4L40.25-2.4Q41.5-2.4 42.4-3.33 43.3-4.25 43.35-6.25L43.35-6.25Q43.35-6.9 43.55-7.23 43.75-7.55 44.5-7.55L44.5-7.55ZM63.5 0.05Q58.15 0.05 54.4-2.88 50.65-5.8 50.65-12.35L50.65-12.35Q50.65-16.3 52.12-19.35 53.6-22.4 56.45-24.1 59.3-25.8 63.25-25.8L63.25-25.8Q67-25.8 69.95-24.25 72.9-22.7 74.62-19.68 76.34-16.65 76.34-12.45L76.34-12.45Q76.34-6.3 72.77-3.13 69.2 0.05 63.5 0.05L63.5 0.05ZM63.45-2.35Q66.25-2.35 68.55-3.45 70.84-4.55 72.25-6.85 73.65-9.15 73.65-12.5L73.65-12.5Q73.65-15.8 72.32-18.28 71-20.75 68.65-22.1 66.3-23.45 63.35-23.45L63.35-23.45Q60.35-23.45 58.07-22.1 55.8-20.75 54.57-18.25 53.35-15.75 53.35-12.45L53.35-12.45Q53.35-7.15 56.35-4.75 59.35-2.35 63.45-2.35L63.45-2.35ZM93.34-0.1Q89.29-0.1 86.54-1.75 83.79-3.4 82.42-6.13 81.04-8.85 81.04-12.1L81.04-12.1Q81.04-15.5 82.47-18.63 83.89-21.75 86.72-23.7 89.54-25.65 93.54-25.65L93.54-25.65Q97.94-25.65 100.67-23.48 103.39-21.3 104.34-18.6L104.34-18.6Q104.44-18.4 104.44-18.05L104.44-18.05Q104.44-17.3 103.54-17.05L103.54-17.05Q102.39-16.8 101.89-18.05L101.89-18.05Q101.14-20.15 99.02-21.73 96.89-23.3 93.79-23.3L93.79-23.3Q90.69-23.3 88.42-21.7 86.14-20.1 84.94-17.55 83.74-15 83.74-12.2L83.74-12.2Q83.74-9.55 84.84-7.33 85.94-5.1 88.12-3.78 90.29-2.45 93.44-2.45L93.44-2.45Q96.44-2.45 98.52-3.65 100.59-4.85 101.59-6.53 102.59-8.2 102.64-9.75L102.64-9.75Q102.64-10.2 102.94-10.48 103.24-10.75 103.79-10.75L103.79-10.75Q105.09-10.75 105.09-9.5L105.09-9.5Q105.09-7.5 103.82-5.3 102.54-3.1 99.89-1.6 97.24-0.1 93.34-0.1L93.34-0.1ZM112.89 0.2Q112.34 0.2 111.94-0.08 111.54-0.35 111.54-0.8L111.54-0.8 111.59-37.3Q111.59-38.6 112.94-38.6L112.94-38.6Q114.29-38.6 114.29-37.3L114.29-37.3 114.19-17.6 119.19-20.55Q126.59-24.95 129.14-26.5L129.14-26.5Q129.69-26.8 129.99-26.8L129.99-26.8Q130.49-26.8 130.89-26.23 131.29-25.65 131.24-25.05L131.24-25.05Q131.19-24.7 130.44-24.2L130.44-24.2 114.24-14.45 130.69-2.6Q131.09-2.3 131.09-1.75L131.09-1.75Q131.09-1.2 130.67-0.73 130.24-0.25 129.69-0.25L129.69-0.25Q129.34-0.25 128.44-0.8L128.44-0.8 114.24-11.15 114.19-0.85Q114.19-0.35 113.84-0.08 113.49 0.2 112.89 0.2L112.89 0.2Z" opacity="1" transform="matrix(1,0,0,1,0,0)" fill="#ffffff" class="undefined-text-0" data-fill-palette-color="primary" id="text-0"></path></svg></g></svg></g></svg></g></svg></g><g transform="matrix(1,0,0,1,55.942015131209196,0)"><svg viewBox="0 0 80.11596973758161 80.11596973758161" height="80.11596973758161" width="80.11596973758161"><g><svg xmlns="http://www.w3.org/2000/svg" viewBox="0 0 8 8" x="0" y="0" height="80.11596973758161" width="80.11596973758161" class="icon-icon-0" data-fill-palette-color="accent" id="icon-0"><path d="M7.03 0l-3.03 3-1-1-3 3.03 1 1 2-2.03 1 1 4-4-0.97-1z m-7.03 7v1h8v-1h-8z" fill="#ffffff" data-fill-palette-color="accent"></path></svg></g></svg></g><g></g></svg></g></svg></g></svg></g></svg></g></svg><rect width="320" height="360" fill="none" stroke="none" visibility="hidden"></rect></g></svg></g></svg>